<svg width="24" height="28" viewBox="0 0 24 28" fill="none" xmlns="http://www.w3.org/2000/svg">
<path d="M4.96468 8.16669H18.6573C18.9347 8.1667 19.2091 8.23502 19.4627 8.36724C19.7163 8.49947 19.9435 8.69266 20.1296 8.93437C20.3158 9.17608 20.4568 9.46094 20.5435 9.77059C20.6303 10.0802 20.6608 10.4078 20.6332 10.7322L20.0374 17.7322C19.9884 18.3079 19.7591 18.8418 19.394 19.23C19.0289 19.6183 18.554 19.8333 18.0615 19.8334H8.57896C8.1197 19.8336 7.67457 19.6467 7.31937 19.3047C6.96416 18.9626 6.72084 18.4865 6.63082 17.9574L4.96468 8.16669Z" stroke="black" stroke-width="2" stroke-linejoin="round"/>
<path d="M15.887 24.5H17.8728M4.96468 8.16667L4.1604 4.38317C4.10661 4.13088 3.98262 3.90694 3.80811 3.74693C3.63361 3.58692 3.41861 3.50001 3.19725 3.5H1.98587L4.96468 8.16667ZM7.94348 24.5H9.92936H7.94348Z" stroke="black" stroke-width="2" stroke-linecap="round" stroke-linejoin="round"/>
</svg>
